<?xml version="1.0" encoding="utf-8" ?>
<svg baseProfile="full" height="941px" version="1.1" viewBox="0 0 1672 941" width="1672px" xmlns="http://www.w3.org/2000/svg" xmlns:ev="http://www.w3.org/2001/xml-events" xmlns:xlink="http://www.w3.org/1999/xlink"><defs><linearGradient id="blueBand" x1="0%" x2="0%" y1="0%" y2="100%"><stop offset="0" stop-color="#e3f0ff" /><stop offset="1" stop-color="#e5f0fb" /></linearGradient><linearGradient id="tanBand" x1="0%" x2="0%" y1="0%" y2="100%"><stop offset="0" stop-color="#fff1db" /><stop offset="1" stop-color="#fff0d4" /></linearGradient><linearGradient id="greenBand" x1="0%" x2="0%" y1="0%" y2="100%"><stop offset="0" stop-color="#eaf5e9" /><stop offset="1" stop-color="#e5f1e1" /></linearGradient><linearGradient id="noteBand" x1="0%" x2="0%" y1="0%" y2="100%"><stop offset="0" stop-color="#f5f7fc" /><stop offset="1" stop-color="#edf1f7" /></linearGradient><linearGradient id="barBlue" x1="0%" x2="0%" y1="0%" y2="100%"><stop offset="0" stop-color="#2f83c6" /><stop offset="1" stop-color="#1f73b4" /></linearGradient><linearGradient id="barOrange" x1="0%" x2="0%" y1="0%" y2="100%"><stop offset="0" stop-color="#ff962e" /><stop offset="1" stop-color="#ff8518" /></linearGradient><marker id="arrowhead" markerHeight="8" markerUnits="strokeWidth" markerWidth="8" orient="auto" refX="8" refY="4"><path d="M 0 0 L 8 4 L 0 8 Z" fill="#647da0" /></marker></defs><rect fill="white" height="941" rx="0" ry="0" stroke="none" stroke-width="1" width="1672" x="0" y="0" /><line stroke="#d3e3f5" stroke-dasharray="7,5" stroke-width="2" x1="925" x2="925" y1="19" y2="914" /><text fill="#080808" font-family="Times New Roman, Liberation Serif, Nimbus Roman, serif" font-size="36.5" font-weight="bold" text-anchor="middle" x="465" y="62">(a) Local fit vs. candidate fit</text><text fill="#080808" font-family="Times New Roman, Liberation Serif, Nimbus Roman, serif" font-size="36.5" font-weight="bold" text-anchor="middle" x="1310" y="62">(b) Preferred-prefix disagreement</text><line stroke="#dfe7f0" stroke-dasharray="5,3" stroke-width="1.25" x1="100" x2="892" y1="805.0" y2="805.0" /><line stroke="#dfe7f0" stroke-dasharray="5,3" stroke-width="1.25" x1="100" x2="892" y1="707.0" y2="707.0" /><line stroke="#dfe7f0" stroke-dasharray="5,3" stroke-width="1.25" x1="100" x2="892" y1="609.0" y2="609.0" /><line stroke="#dfe7f0" stroke-dasharray="5,3" stroke-width="1.25" x1="100" x2="892" y1="510.99999999999994" y2="510.99999999999994" /><line stroke="#dfe7f0" stroke-dasharray="5,3" stroke-width="1.25" x1="100" x2="892" y1="412.99999999999994" y2="412.99999999999994" /><line stroke="#dfe7f0" stroke-dasharray="5,3" stroke-width="1.25" x1="100" x2="892" y1="315.0" y2="315.0" /><line stroke="#dfe7f0" stroke-dasharray="5,3" stroke-width="1.25" x1="100" x2="892" y1="216.9999999999999" y2="216.9999999999999" /><line stroke="#dfe7f0" stroke-dasharray="5,3" stroke-width="1.25" x1="100" x2="892" y1="118.99999999999989" y2="118.99999999999989" /><line stroke="#111111" stroke-width="2.2" x1="100" x2="100" y1="119" y2="805" /><line stroke="#111111" stroke-width="2.2" x1="100" x2="892" y1="805" y2="805" /><line stroke="#111111" stroke-width="1.5" x1="93" x2="100" y1="805.0" y2="805.0" /><text fill="#080808" font-family="Times New Roman, Liberation Serif, Nimbus Roman, serif" font-size="23" text-anchor="end" x="81" y="812.0">0.0</text><line stroke="#111111" stroke-width="1.5" x1="93" x2="100" y1="707.0" y2="707.0" /><text fill="#080808" font-family="Times New Roman, Liberation Serif, Nimbus Roman, serif" font-size="23" text-anchor="end" x="81" y="714.0">0.1</text><line stroke="#111111" stroke-width="1.5" x1="93" x2="100" y1="609.0" y2="609.0" /><text fill="#080808" font-family="Times New Roman, Liberation Serif, Nimbus Roman, serif" font-size="23" text-anchor="end" x="81" y="616.0">0.2</text><line stroke="#111111" stroke-width="1.5" x1="93" x2="100" y1="510.99999999999994" y2="510.99999999999994" /><text fill="#080808" font-family="Times New Roman, Liberation Serif, Nimbus Roman, serif" font-size="23" text-anchor="end" x="81" y="518.0">0.3</text><line stroke="#111111" stroke-width="1.5" x1="93" x2="100" y1="412.99999999999994" y2="412.99999999999994" /><text fill="#080808" font-family="Times New Roman, Liberation Serif, Nimbus Roman, serif" font-size="23" text-anchor="end" x="81" y="419.99999999999994">0.4</text><line stroke="#111111" stroke-width="1.5" x1="93" x2="100" y1="315.0" y2="315.0" /><text fill="#080808" font-family="Times New Roman, Liberation Serif, Nimbus Roman, serif" font-size="23" text-anchor="end" x="81" y="322.0">0.5</text><line stroke="#111111" stroke-width="1.5" x1="93" x2="100" y1="216.9999999999999" y2="216.9999999999999" /><text fill="#080808" font-family="Times New Roman, Liberation Serif, Nimbus Roman, serif" font-size="23" text-anchor="end" x="81" y="223.9999999999999">0.6</text><line stroke="#111111" stroke-width="1.5" x1="93" x2="100" y1="118.99999999999989" y2="118.99999999999989" /><text fill="#080808" font-family="Times New Roman, Liberation Serif, Nimbus Roman, serif" font-size="23" text-anchor="end" x="81" y="125.99999999999989">0.7</text><line stroke="#c9d5e5" stroke-dasharray="8,5" stroke-width="2" x1="352" x2="352" y1="119" y2="837" /><line stroke="#c9d5e5" stroke-dasharray="8,5" stroke-width="2" x1="597" x2="597" y1="119" y2="837" /><line stroke="#dfe7f0" stroke-dasharray="5,3" stroke-width="1.25" x1="1021" x2="1633" y1="805.0" y2="805.0" /><line stroke="#dfe7f0" stroke-dasharray="5,3" stroke-width="1.25" x1="1021" x2="1633" y1="719.25" y2="719.25" /><line stroke="#dfe7f0" stroke-dasharray="5,3" stroke-width="1.25" x1="1021" x2="1633" y1="633.5" y2="633.5" /><line stroke="#dfe7f0" stroke-dasharray="5,3" stroke-width="1.25" x1="1021" x2="1633" y1="547.75" y2="547.75" /><line stroke="#dfe7f0" stroke-dasharray="5,3" stroke-width="1.25" x1="1021" x2="1633" y1="462.0" y2="462.0" /><line stroke="#dfe7f0" stroke-dasharray="5,3" stroke-width="1.25" x1="1021" x2="1633" y1="376.25" y2="376.25" /><line stroke="#dfe7f0" stroke-dasharray="5,3" stroke-width="1.25" x1="1021" x2="1633" y1="290.5" y2="290.5" /><line stroke="#dfe7f0" stroke-dasharray="5,3" stroke-width="1.25" x1="1021" x2="1633" y1="204.75" y2="204.75" /><line stroke="#dfe7f0" stroke-dasharray="5,3" stroke-width="1.25" x1="1021" x2="1633" y1="119.0" y2="119.0" /><line stroke="#111111" stroke-width="2.2" x1="1021" x2="1021" y1="119" y2="805" /><line stroke="#111111" stroke-width="2.2" x1="1021" x2="1633" y1="805" y2="805" /><line stroke="#111111" stroke-width="1.5" x1="1014" x2="1021" y1="805.0" y2="805.0" /><text fill="#080808" font-family="Times New Roman, Liberation Serif, Nimbus Roman, serif" font-size="23" text-anchor="end" x="1002" y="812.0">0</text><line stroke="#111111" stroke-width="1.5" x1="1014" x2="1021" y1="719.25" y2="719.25" /><text fill="#080808" font-family="Times New Roman, Liberation Serif, Nimbus Roman, serif" font-size="23" text-anchor="end" x="1002" y="726.25">10</text><line stroke="#111111" stroke-width="1.5" x1="1014" x2="1021" y1="633.5" y2="633.5" /><text fill="#080808" font-family="Times New Roman, Liberation Serif, Nimbus Roman, serif" font-size="23" text-anchor="end" x="1002" y="640.5">20</text><line stroke="#111111" stroke-width="1.5" x1="1014" x2="1021" y1="547.75" y2="547.75" /><text fill="#080808" font-family="Times New Roman, Liberation Serif, Nimbus Roman, serif" font-size="23" text-anchor="end" x="1002" y="554.75">30</text><line stroke="#111111" stroke-width="1.5" x1="1014" x2="1021" y1="462.0" y2="462.0" /><text fill="#080808" font-family="Times New Roman, Liberation Serif, Nimbus Roman, serif" font-size="23" text-anchor="end" x="1002" y="469.0">40</text><line stroke="#111111" stroke-width="1.5" x1="1014" x2="1021" y1="376.25" y2="376.25" /><text fill="#080808" font-family="Times New Roman, Liberation Serif, Nimbus Roman, serif" font-size="23" text-anchor="end" x="1002" y="383.25">50</text><line stroke="#111111" stroke-width="1.5" x1="1014" x2="1021" y1="290.5" y2="290.5" /><text fill="#080808" font-family="Times New Roman, Liberation Serif, Nimbus Roman, serif" font-size="23" text-anchor="end" x="1002" y="297.5">60</text><line stroke="#111111" stroke-width="1.5" x1="1014" x2="1021" y1="204.75" y2="204.75" /><text fill="#080808" font-family="Times New Roman, Liberation Serif, Nimbus Roman, serif" font-size="23" text-anchor="end" x="1002" y="211.75">70</text><line stroke="#111111" stroke-width="1.5" x1="1014" x2="1021" y1="119.0" y2="119.0" /><text fill="#080808" font-family="Times New Roman, Liberation Serif, Nimbus Roman, serif" font-size="23" text-anchor="end" x="1002" y="126.0">80</text><line stroke="#c9d5e5" stroke-dasharray="8,5" stroke-width="2" x1="1223" x2="1223" y1="119" y2="837" /><line stroke="#c9d5e5" stroke-dasharray="8,5" stroke-width="2" x1="1428" x2="1428" y1="119" y2="837" /><text fill="#080808" font-family="Times New Roman, Liberation Serif, Nimbus Roman, serif" font-size="26" font-weight="bold" text-anchor="middle" transform="rotate(-90 35 465)" x="35" y="465">KL</text><text fill="#080808" font-family="Times New Roman, Liberation Serif, Nimbus Roman, serif" font-size="26" font-weight="bold" text-anchor="middle" transform="rotate(-90 969 462)" x="969" y="462">Disagreement (%)</text><rect fill="url(#barBlue)" height="103.586" rx="0" ry="0" stroke="none" stroke-width="1" width="26.3" x="110.19999999999999" y="701.414" /><rect fill="url(#barOrange)" height="98.686" rx="0" ry="0" stroke="none" stroke-width="1" width="26.3" x="136.5" y="706.314" /><line stroke="#111" stroke-width="1.5" x1="136.5" x2="136.5" y1="805" y2="813" /><text fill="#080808" font-family="Times New Roman, Liberation Serif, Nimbus Roman, serif" font-size="23" text-anchor="middle" x="136.5" y="837">MLP</text><rect fill="url(#barBlue)" height="159.936" rx="0" ry="0" stroke="none" stroke-width="1" width="26.3" x="191.7" y="645.064" /><rect fill="url(#barOrange)" height="239.70800000000003" rx="0" ry="0" stroke="none" stroke-width="1" width="26.3" x="218.0" y="565.2919999999999" /><line stroke="#111" stroke-width="1.5" x1="218" x2="218" y1="805" y2="813" /><text fill="#080808" font-family="Times New Roman, Liberation Serif, Nimbus Roman, serif" font-size="23" text-anchor="middle" x="218" y="837">GRU</text><rect fill="url(#barBlue)" height="255.09400000000002" rx="0" ry="0" stroke="none" stroke-width="1" width="26.3" x="272.70000000000005" y="549.906" /><rect fill="url(#barOrange)" height="504.70000000000005" rx="0" ry="0" stroke="none" stroke-width="1" width="26.3" x="299.0" y="300.29999999999995" /><line stroke="#111" stroke-width="1.5" x1="299" x2="299" y1="805" y2="813" /><text fill="#080808" font-family="Times New Roman, Liberation Serif, Nimbus Roman, serif" font-size="23" text-anchor="middle" x="299" y="837">CNN</text><rect fill="url(#barBlue)" height="140.63" rx="0" ry="0" stroke="none" stroke-width="1" width="26.3" x="356.20000000000005" y="664.37" /><rect fill="url(#barOrange)" height="137.00400000000002" rx="0" ry="0" stroke="none" stroke-width="1" width="26.3" x="382.5" y="667.996" /><line stroke="#111" stroke-width="1.5" x1="382.5" x2="382.5" y1="805" y2="813" /><text fill="#080808" font-family="Times New Roman, Liberation Serif, Nimbus Roman, serif" font-size="23" text-anchor="middle" x="382.5" y="837">MLP</text><rect fill="url(#barBlue)" height="199.136" rx="0" ry="0" stroke="none" stroke-width="1" width="26.3" x="439.40000000000003" y="605.864" /><rect fill="url(#barOrange)" height="320.068" rx="0" ry="0" stroke="none" stroke-width="1" width="26.3" x="465.7" y="484.932" /><line stroke="#111" stroke-width="1.5" x1="465.7" x2="465.7" y1="805" y2="813" /><text fill="#080808" font-family="Times New Roman, Liberation Serif, Nimbus Roman, serif" font-size="23" text-anchor="middle" x="465.7" y="837">GRU</text><rect fill="url(#barBlue)" height="304.976" rx="0" ry="0" stroke="none" stroke-width="1" width="26.3" x="522.7" y="500.024" /><rect fill="url(#barOrange)" height="594.3700000000001" rx="0" ry="0" stroke="none" stroke-width="1" width="26.3" x="549.0" y="210.62999999999988" /><line stroke="#111" stroke-width="1.5" x1="549" x2="549" y1="805" y2="813" /><text fill="#080808" font-family="Times New Roman, Liberation Serif, Nimbus Roman, serif" font-size="23" text-anchor="middle" x="549" y="837">CNN</text><rect fill="url(#barBlue)" height="86.436" rx="0" ry="0" stroke="none" stroke-width="1" width="26.3" x="621.7" y="718.564" /><rect fill="url(#barOrange)" height="75.264" rx="0" ry="0" stroke="none" stroke-width="1" width="26.3" x="648.0" y="729.736" /><line stroke="#111" stroke-width="1.5" x1="648" x2="648" y1="805" y2="813" /><text fill="#080808" font-family="Times New Roman, Liberation Serif, Nimbus Roman, serif" font-size="23" text-anchor="middle" x="648" y="837">MLP</text><rect fill="url(#barBlue)" height="81.046" rx="0" ry="0" stroke="none" stroke-width="1" width="26.3" x="719.2" y="723.954" /><rect fill="url(#barOrange)" height="99.96" rx="0" ry="0" stroke="none" stroke-width="1" width="26.3" x="745.5" y="705.04" /><line stroke="#111" stroke-width="1.5" x1="745.5" x2="745.5" y1="805" y2="813" /><text fill="#080808" font-family="Times New Roman, Liberation Serif, Nimbus Roman, serif" font-size="23" text-anchor="middle" x="745.5" y="837">GRU</text><rect fill="url(#barBlue)" height="153.076" rx="0" ry="0" stroke="none" stroke-width="1" width="26.3" x="809.7" y="651.924" /><rect fill="url(#barOrange)" height="219.52000000000004" rx="0" ry="0" stroke="none" stroke-width="1" width="26.3" x="836.0" y="585.48" /><line stroke="#111" stroke-width="1.5" x1="836" x2="836" y1="805" y2="813" /><text fill="#080808" font-family="Times New Roman, Liberation Serif, Nimbus Roman, serif" font-size="23" text-anchor="middle" x="836" y="837">CNN</text><text fill="#1f73b4" font-family="Times New Roman, Liberation Serif, Nimbus Roman, serif" font-size="20.5" text-anchor="middle" x="123.35" y="690.414">0.1057</text><text fill="#ff8518" font-family="Times New Roman, Liberation Serif, Nimbus Roman, serif" font-size="20.5" text-anchor="middle" x="149.65" y="695.314">0.1007</text><text fill="#1f73b4" font-family="Times New Roman, Liberation Serif, Nimbus Roman, serif" font-size="20.5" text-anchor="middle" x="204.85" y="634.064">0.1632</text><text fill="#ff8518" font-family="Times New Roman, Liberation Serif, Nimbus Roman, serif" font-size="20.5" text-anchor="middle" x="231.15" y="554.2919999999999">0.2446</text><text fill="#1f73b4" font-family="Times New Roman, Liberation Serif, Nimbus Roman, serif" font-size="20.5" text-anchor="middle" x="285.85" y="538.906">0.2603</text><text fill="#ff8518" font-family="Times New Roman, Liberation Serif, Nimbus Roman, serif" font-size="20.5" text-anchor="middle" x="312.15" y="289.29999999999995">0.5150</text><text fill="#1f73b4" font-family="Times New Roman, Liberation Serif, Nimbus Roman, serif" font-size="20.5" text-anchor="middle" x="369.35" y="653.37">0.1435</text><text fill="#ff8518" font-family="Times New Roman, Liberation Serif, Nimbus Roman, serif" font-size="20.5" text-anchor="middle" x="395.65" y="656.996">0.1398</text><text fill="#1f73b4" font-family="Times New Roman, Liberation Serif, Nimbus Roman, serif" font-size="20.5" text-anchor="middle" x="452.55" y="594.864">0.2032</text><text fill="#ff8518" font-family="Times New Roman, Liberation Serif, Nimbus Roman, serif" font-size="20.5" text-anchor="middle" x="478.84999999999997" y="473.932">0.3266</text><text fill="#1f73b4" font-family="Times New Roman, Liberation Serif, Nimbus Roman, serif" font-size="20.5" text-anchor="middle" x="535.85" y="489.024">0.3112</text><text fill="#ff8518" font-family="Times New Roman, Liberation Serif, Nimbus Roman, serif" font-size="20.5" text-anchor="middle" x="562.15" y="199.62999999999988">0.6065</text><text fill="#1f73b4" font-family="Times New Roman, Liberation Serif, Nimbus Roman, serif" font-size="20.5" text-anchor="middle" x="634.85" y="707.564">0.0882</text><text fill="#ff8518" font-family="Times New Roman, Liberation Serif, Nimbus Roman, serif" font-size="20.5" text-anchor="middle" x="661.15" y="718.736">0.0768</text><text fill="#1f73b4" font-family="Times New Roman, Liberation Serif, Nimbus Roman, serif" font-size="20.5" text-anchor="middle" x="732.35" y="712.954">0.0827</text><text fill="#ff8518" font-family="Times New Roman, Liberation Serif, Nimbus Roman, serif" font-size="20.5" text-anchor="middle" x="758.65" y="694.04">0.1020</text><text fill="#1f73b4" font-family="Times New Roman, Liberation Serif, Nimbus Roman, serif" font-size="20.5" text-anchor="middle" x="822.85" y="640.924">0.1562</text><text fill="#ff8518" font-family="Times New Roman, Liberation Serif, Nimbus Roman, serif" font-size="20.5" text-anchor="middle" x="849.15" y="574.48">0.2240</text><rect fill="url(#barBlue)" height="144.06" rx="0" ry="0" stroke="none" stroke-width="1" width="23.3" x="1029.1999999999998" y="660.94" /><rect fill="url(#barOrange)" height="306.985" rx="0" ry="0" stroke="none" stroke-width="1" width="23.3" x="1052.5" y="498.015" /><line stroke="#111" stroke-width="1.5" x1="1052.5" x2="1052.5" y1="805" y2="813" /><text fill="#080808" font-family="Times New Roman, Liberation Serif, Nimbus Roman, serif" font-size="23" text-anchor="middle" x="1052.5" y="837">MLP</text><rect fill="url(#barBlue)" height="225.52249999999998" rx="0" ry="0" stroke="none" stroke-width="1" width="23.3" x="1093.6999999999998" y="579.4775" /><rect fill="url(#barOrange)" height="433.895" rx="0" ry="0" stroke="none" stroke-width="1" width="23.3" x="1117.0" y="371.105" /><line stroke="#111" stroke-width="1.5" x1="1117" x2="1117" y1="805" y2="813" /><text fill="#080808" font-family="Times New Roman, Liberation Serif, Nimbus Roman, serif" font-size="23" text-anchor="middle" x="1117" y="837">GRU</text><rect fill="url(#barBlue)" height="367.01" rx="0" ry="0" stroke="none" stroke-width="1" width="23.3" x="1159.1999999999998" y="437.99" /><rect fill="url(#barOrange)" height="571.095" rx="0" ry="0" stroke="none" stroke-width="1" width="23.3" x="1182.5" y="233.90499999999997" /><line stroke="#111" stroke-width="1.5" x1="1182.5" x2="1182.5" y1="805" y2="813" /><text fill="#080808" font-family="Times New Roman, Liberation Serif, Nimbus Roman, serif" font-size="23" text-anchor="middle" x="1182.5" y="837">CNN</text><rect fill="url(#barBlue)" height="131.19750000000002" rx="0" ry="0" stroke="none" stroke-width="1" width="23.3" x="1230.6999999999998" y="673.8025" /><rect fill="url(#barOrange)" height="334.425" rx="0" ry="0" stroke="none" stroke-width="1" width="23.3" x="1254.0" y="470.575" /><line stroke="#111" stroke-width="1.5" x1="1254" x2="1254" y1="805" y2="813" /><text fill="#080808" font-family="Times New Roman, Liberation Serif, Nimbus Roman, serif" font-size="23" text-anchor="middle" x="1254" y="837">MLP</text><rect fill="url(#barBlue)" height="220.3775" rx="0" ry="0" stroke="none" stroke-width="1" width="23.3" x="1294.6999999999998" y="584.6225" /><rect fill="url(#barOrange)" height="463.90749999999997" rx="0" ry="0" stroke="none" stroke-width="1" width="23.3" x="1318.0" y="341.09250000000003" /><line stroke="#111" stroke-width="1.5" x1="1318" x2="1318" y1="805" y2="813" /><text fill="#080808" font-family="Times New Roman, Liberation Serif, Nimbus Roman, serif" font-size="23" text-anchor="middle" x="1318" y="837">GRU</text><rect fill="url(#barBlue)" height="339.57000000000005" rx="0" ry="0" stroke="none" stroke-width="1" width="23.3" x="1361.6999999999998" y="465.42999999999995" /><rect fill="url(#barOrange)" height="580.5275" rx="0" ry="0" stroke="none" stroke-width="1" width="23.3" x="1385.0" y="224.47249999999997" /><line stroke="#111" stroke-width="1.5" x1="1385" x2="1385" y1="805" y2="813" /><text fill="#080808" font-family="Times New Roman, Liberation Serif, Nimbus Roman, serif" font-size="23" text-anchor="middle" x="1385" y="837">CNN</text><rect fill="url(#barBlue)" height="114.905" rx="0" ry="0" stroke="none" stroke-width="1" width="23.3" x="1429.6999999999998" y="690.095" /><rect fill="url(#barOrange)" height="273.54249999999996" rx="0" ry="0" stroke="none" stroke-width="1" width="23.3" x="1453.0" y="531.4575" /><line stroke="#111" stroke-width="1.5" x1="1453" x2="1453" y1="805" y2="813" /><text fill="#080808" font-family="Times New Roman, Liberation Serif, Nimbus Roman, serif" font-size="23" text-anchor="middle" x="1453" y="837">MLP</text><rect fill="url(#barBlue)" height="144.06" rx="0" ry="0" stroke="none" stroke-width="1" width="23.3" x="1500.6999999999998" y="660.94" /><rect fill="url(#barOrange)" height="305.27000000000004" rx="0" ry="0" stroke="none" stroke-width="1" width="23.3" x="1524.0" y="499.72999999999996" /><line stroke="#111" stroke-width="1.5" x1="1524" x2="1524" y1="805" y2="813" /><text fill="#080808" font-family="Times New Roman, Liberation Serif, Nimbus Roman, serif" font-size="23" text-anchor="middle" x="1524" y="837">GRU</text><rect fill="url(#barBlue)" height="209.22999999999996" rx="0" ry="0" stroke="none" stroke-width="1" width="23.3" x="1581.6999999999998" y="595.77" /><rect fill="url(#barOrange)" height="409.88499999999993" rx="0" ry="0" stroke="none" stroke-width="1" width="23.3" x="1605.0" y="395.11500000000007" /><line stroke="#111" stroke-width="1.5" x1="1605" x2="1605" y1="805" y2="813" /><text fill="#080808" font-family="Times New Roman, Liberation Serif, Nimbus Roman, serif" font-size="23" text-anchor="middle" x="1605" y="837">CNN</text><text fill="#1f73b4" font-family="Times New Roman, Liberation Serif, Nimbus Roman, serif" font-size="20.5" text-anchor="middle" x="1040.85" y="649.94">16.8%</text><text fill="#ff8518" font-family="Times New Roman, Liberation Serif, Nimbus Roman, serif" font-size="20.5" text-anchor="middle" x="1064.15" y="487.015">35.8%</text><text fill="#1f73b4" font-family="Times New Roman, Liberation Serif, Nimbus Roman, serif" font-size="20.5" text-anchor="middle" x="1105.35" y="568.4775">26.3%</text><text fill="#ff8518" font-family="Times New Roman, Liberation Serif, Nimbus Roman, serif" font-size="20.5" text-anchor="middle" x="1128.65" y="360.105">50.6%</text><text fill="#1f73b4" font-family="Times New Roman, Liberation Serif, Nimbus Roman, serif" font-size="20.5" text-anchor="middle" x="1170.85" y="426.99">42.8%</text><text fill="#ff8518" font-family="Times New Roman, Liberation Serif, Nimbus Roman, serif" font-size="20.5" text-anchor="middle" x="1194.15" y="222.90499999999997">66.6%</text><text fill="#1f73b4" font-family="Times New Roman, Liberation Serif, Nimbus Roman, serif" font-size="20.5" text-anchor="middle" x="1242.35" y="662.8025">15.3%</text><text fill="#ff8518" font-family="Times New Roman, Liberation Serif, Nimbus Roman, serif" font-size="20.5" text-anchor="middle" x="1265.65" y="459.575">39.0%</text><text fill="#1f73b4" font-family="Times New Roman, Liberation Serif, Nimbus Roman, serif" font-size="20.5" text-anchor="middle" x="1306.35" y="573.6225">25.7%</text><text fill="#ff8518" font-family="Times New Roman, Liberation Serif, Nimbus Roman, serif" font-size="20.5" text-anchor="middle" x="1329.65" y="330.09250000000003">54.1%</text><text fill="#1f73b4" font-family="Times New Roman, Liberation Serif, Nimbus Roman, serif" font-size="20.5" text-anchor="middle" x="1373.35" y="454.42999999999995">39.6%</text><text fill="#ff8518" font-family="Times New Roman, Liberation Serif, Nimbus Roman, serif" font-size="20.5" text-anchor="middle" x="1396.65" y="213.47249999999997">67.7%</text><text fill="#1f73b4" font-family="Times New Roman, Liberation Serif, Nimbus Roman, serif" font-size="20.5" text-anchor="middle" x="1441.35" y="679.095">13.4%</text><text fill="#ff8518" font-family="Times New Roman, Liberation Serif, Nimbus Roman, serif" font-size="20.5" text-anchor="middle" x="1464.65" y="520.4575">31.9%</text><text fill="#1f73b4" font-family="Times New Roman, Liberation Serif, Nimbus Roman, serif" font-size="20.5" text-anchor="middle" x="1512.35" y="649.94">16.8%</text><text fill="#ff8518" font-family="Times New Roman, Liberation Serif, Nimbus Roman, serif" font-size="20.5" text-anchor="middle" x="1535.65" y="488.72999999999996">35.6%</text><text fill="#1f73b4" font-family="Times New Roman, Liberation Serif, Nimbus Roman, serif" font-size="20.5" text-anchor="middle" x="1593.35" y="584.77">24.4%</text><text fill="#ff8518" font-family="Times New Roman, Liberation Serif, Nimbus Roman, serif" font-size="20.5" text-anchor="middle" x="1616.65" y="384.11500000000007">47.8%</text><rect fill="url(#blueBand)" height="43" rx="8" ry="8" stroke="none" stroke-width="1" width="240" x="100" y="853" /><text fill="#080808" font-family="Times New Roman, Liberation Serif, Nimbus Roman, serif" font-size="26" font-weight="bold" text-anchor="middle" x="220.0" y="883">Beauty</text><rect fill="url(#tanBand)" height="43" rx="8" ry="8" stroke="none" stroke-width="1" width="240" x="347" y="853" /><text fill="#080808" font-family="Times New Roman, Liberation Serif, Nimbus Roman, serif" font-size="26" font-weight="bold" text-anchor="middle" x="467.0" y="883">Toys</text><rect fill="url(#greenBand)" height="43" rx="8" ry="8" stroke="none" stroke-width="1" width="295" x="598" y="853" /><text fill="#080808" font-family="Times New Roman, Liberation Serif, Nimbus Roman, serif" font-size="26" font-weight="bold" text-anchor="middle" x="745.5" y="883">Video Games</text><rect fill="url(#blueBand)" height="43" rx="8" ry="8" stroke="none" stroke-width="1" width="197" x="1019" y="853" /><text fill="#080808" font-family="Times New Roman, Liberation Serif, Nimbus Roman, serif" font-size="26" font-weight="bold" text-anchor="middle" x="1117.5" y="883">Beauty</text><rect fill="url(#tanBand)" height="43" rx="8" ry="8" stroke="none" stroke-width="1" width="192" x="1222" y="853" /><text fill="#080808" font-family="Times New Roman, Liberation Serif, Nimbus Roman, serif" font-size="26" font-weight="bold" text-anchor="middle" x="1318.0" y="883">Toys</text><rect fill="url(#greenBand)" height="43" rx="8" ry="8" stroke="none" stroke-width="1" width="206" x="1427" y="853" /><text fill="#080808" font-family="Times New Roman, Liberation Serif, Nimbus Roman, serif" font-size="26" font-weight="bold" text-anchor="middle" x="1530.0" y="883">Video Games</text><rect fill="#ffffff" height="70" rx="6" ry="6" stroke="#c4cfdc" stroke-width="1.2" width="291" x="114" y="127" /><rect fill="url(#barBlue)" height="22" rx="2" ry="2" stroke="none" stroke-width="1" width="39" x="128" y="137" /><rect fill="url(#barOrange)" height="21" rx="2" ry="2" stroke="none" stroke-width="1" width="39" x="128" y="167" /><text fill="#080808" font-family="Times New Roman, Liberation Serif, Nimbus Roman, serif" font-size="22.5" text-anchor="start" x="185" y="155">Gold-prefix token KL</text><text fill="#080808" font-family="Times New Roman, Liberation Serif, Nimbus Roman, serif" font-size="22.5" text-anchor="start" x="185" y="185">Complete-candidate KL</text><rect fill="#ffffff" height="71" rx="6" ry="6" stroke="#c4cfdc" stroke-width="1.2" width="143" x="1034" y="127" /><rect fill="url(#barBlue)" height="22" rx="2" ry="2" stroke="none" stroke-width="1" width="38" x="1044" y="137" /><rect fill="url(#barOrange)" height="21" rx="2" ry="2" stroke="none" stroke-width="1" width="38" x="1044" y="167" /><text fill="#080808" font-family="Times New Roman, Liberation Serif, Nimbus Roman, serif" font-size="22.5" text-anchor="start" x="1094" y="155">Depth 1</text><text fill="#080808" font-family="Times New Roman, Liberation Serif, Nimbus Roman, serif" font-size="22.5" text-anchor="start" x="1094" y="185">Depth 2</text><rect fill="url(#noteBand)" height="128" rx="8" ry="8" stroke="#647da0" stroke-width="2.2" width="297" x="605" y="323" /><text fill="#132d56" font-family="Times New Roman, Liberation Serif, Nimbus Roman, serif" font-size="20.5" font-weight="bold" text-anchor="start" x="622" y="354">Counterexample: lower local</text><text fill="#132d56" font-family="Times New Roman, Liberation Serif, Nimbus Roman, serif" font-size="20.5" text-anchor="start" x="622" y="381">token KL does not necessarily</text><text fill="#132d56" font-family="Times New Roman, Liberation Serif, Nimbus Roman, serif" font-size="20.5" text-anchor="start" x="622" y="408">imply lower complete-candidate</text><text fill="#132d56" font-family="Times New Roman, Liberation Serif, Nimbus Roman, serif" font-size="20.5" text-anchor="start" x="622" y="435">KL.</text><line marker-end="url(#arrowhead)" stroke="#647da0" stroke-width="2.3" x1="737" x2="709" y1="451" y2="514" /><rect fill="url(#noteBand)" height="61" rx="8" ry="8" stroke="#647da0" stroke-width="1.8" width="142" x="604" y="520" /><rect fill="url(#noteBand)" height="61" rx="8" ry="8" stroke="#647da0" stroke-width="1.8" width="145" x="754" y="520" /><text fill="#152e56" font-family="Times New Roman, Liberation Serif, Nimbus Roman, serif" font-size="21" font-weight="bold" text-anchor="middle" x="675" y="544">VG-MLP:</text><text fill="#152e56" font-family="Times New Roman, Liberation Serif, Nimbus Roman, serif" font-size="21" font-weight="bold" text-anchor="middle" x="826" y="544">VG-GRU:</text><text fill="#1f73b4" font-family="Times New Roman, Liberation Serif, Nimbus Roman, serif" font-size="20" text-anchor="start" x="615" y="569">0.0882</text><text fill="#1e3150" font-family="Times New Roman, Liberation Serif, Nimbus Roman, serif" font-size="20" text-anchor="start" x="671" y="569">/</text><text fill="#ff8518" font-family="Times New Roman, Liberation Serif, Nimbus Roman, serif" font-size="20" text-anchor="start" x="686" y="569">0.0768</text><text fill="#1f73b4" font-family="Times New Roman, Liberation Serif, Nimbus Roman, serif" font-size="20" text-anchor="start" x="763" y="569">0.0827</text><text fill="#1e3150" font-family="Times New Roman, Liberation Serif, Nimbus Roman, serif" font-size="20" text-anchor="start" x="819" y="569">/</text><text fill="#ff8518" font-family="Times New Roman, Liberation Serif, Nimbus Roman, serif" font-size="20" text-anchor="start" x="835" y="569">0.1020</text><line marker-end="url(#arrowhead)" stroke="#647da0" stroke-width="2.3" x1="677" x2="645" y1="581" y2="665" /><line marker-end="url(#arrowhead)" stroke="#647da0" stroke-width="2.3" x1="776" x2="747" y1="581" y2="665" /><rect fill="none" height="137" rx="3" ry="3" stroke="#98a9bf" stroke-dasharray="7,5" stroke-width="2" width="88" x="605" y="668" /><rect fill="none" height="137" rx="3" ry="3" stroke="#98a9bf" stroke-dasharray="7,5" stroke-width="2" width="88" x="707" y="668" /></svg>